<svg height="502pt" preserveAspectRatio="xMidYMid meet" viewBox="0 0 488 502" width="488pt" xmlns="http://www.w3.org/2000/svg"><g transform="matrix(.1 0 0 -.1 0 502)"><path d="m1270 3511v-881h280 280v28c0 41 44 215 85 330 38 108 121 288 138 299 16 10 155-162 221-274 42-72 114-238 118-276 5-36 22-40 25-5 3 50 93 244 153 334 33 49 88 122 122 163l62 74 58-119c68-139 131-327 155-460l18-94h277 278v881 882l-77-6c-43-3-127-16-188-28-60-11-121-23-135-25-68-13-250-83-372-145-149-75-222-118-308-184l-55-43-30 24c-125 101-400 248-576 308-115 39-329 83-451 93l-78 6zm407 634c159-42 356-137 525-252l68-46-88-91c-48-50-103-112-122-138s-39-48-44-48c-4 0-40 20-80 44-99 62-291 153-351 166-27 6-67 15-87 21l-38 10v193 193l63-14c34-8 103-25 154-38zm1669-332c-5-5-100-31-141-38-41-8-243-106-331-161-40-24-76-44-81-44s-25 21-43 46-73 88-122 139l-89 93 83 55c92 62 284 164 368 197 30 12 123 39 205 60l150 37 3-190c1-104 1-192-2-194zm-763-273c29-36 55-66 59-68 17-8 5-26-62-102-38-44-92-111-120-150-29-38-55-70-58-70-4 1-24 27-44 58-21 31-73 98-118 149-77 89-89 107-72 115 4 2 23 23 42 48s70 82 114 128l80 82 64-62c35-35 87-92 115-128zm-1016 56c46-14 111-40 145-57 73-37 198-116 198-125 0-4-34-74-75-157-41-82-75-157-75-167 0-9-3-20-7-24-5-4-9-12-9-17-1-5-3-11-4-14s-3-8-4-12c-1-5-15-54-30-110l-29-103h-109-108v410c0 323 3 409 13 405 6-2 49-15 94-29zm1783-376v-410h-110-110l-6 28c-32 140-84 285-151 421l-76 154 24 20c63 51 214 129 305 158 55 17 104 32 109 34 6 2 11 4 13 4 1 1 2-183 2-409z"/><path d="m1590 2419c0-3-63-178-140-389s-140-388-140-393 10-7 21-5c18 2 31 28 74 148l53 145 135 3 135 3 16-43c9-24 33-90 54-148 33-88 43-106 62-108 29-5 41-44-124 407-121 332-146 397-146 380zm69-295c28-77 51-144 51-147 0-4-52-7-115-7s-115 4-115 8c0 8 76 220 102 285 14 36 12 38 77-139z"/><path d="m2420 2398c-60-31-90-77-90-140 0-88 42-137 170-195 156-71 217-181 160-292-60-119-206-143-299-49-25 24-43 53-47 74-5 25-11 34-21 30-8-3-17-6-19-6-14 0 0-53 25-92 74-117 236-140 341-50 54 46 80 101 80 172 0 110-72 200-200 250-130 51-180 135-130 218 43 71 139 76 194 11 16-19 32-29 41-25 23 9 18 29-17 63-60 58-117 67-188 31z"/><path d="m3160 2404c-110-30-199-108-254-223-28-60-31-75-31-161 1-85 4-102 31-160 45-95 101-153 192-197 72-36 81-38 171-38 87 0 102 3 162 31 150 71 239 207 239 364 0 264-251 454-510 384zm246-55c76-29 164-116 192-192 32-84 37-144 18-218-70-274-397-367-595-169-140 140-141 356-2 498 102 105 243 135 387 81z"/><path d="m468 2020c2-380 3-390 22-390s20 10 22 345l3 346 138-238c75-131 141-244 146-251 5-9 54 67 152 237l144 249 3-344 2-344h25 25v391 390l-27-3c-24-3-43-32-168-248-78-135-145-245-149-245s-71 111-149 247c-125 218-145 247-167 248h-25z"/><path d="m2050 2020v-390h25 25v390 390h-25-25z"/><path d="m3860 2021v-391h25 25l2 343 3 344 199-344c150-260 203-343 217-343 18 0 19 14 19 390 0 382 0 390-20 390-19 0-20-8-22-342l-3-341-196 339c-173 300-199 339-222 342l-27 3z"/><path d="m2210 1329v-161l79 3c67 4 83 8 105 28 35 33 34 74-2 110l-27 28 22 17c23 17 30 56 17 91-11 28-60 45-129 45h-65zm154 115c21-20 20-53-1-76-12-13-30-18-70-18h-53v55 55h54c36 0 60-5 70-16zm6-144c25-25 26-62 1-84-11-10-43-20-75-23l-56-6v67 66h55c42 0 60-5 75-20z"/><path d="m2490 1390c43-87 50-108 50-160 0-47 3-60 15-60s15 13 15 60c0 52 6 73 47 153 26 50 49 95 51 100 2 4-3 7-12 7-10 0-31-31-56-80-22-44-42-80-45-80s-23 36-45 80c-23 46-46 80-55 80-11 0-2-27 35-100z"/><path d="m3100 1405c-38-39-75-46-85-16-8 26-55 42-81 28-47-26-55-63-21-95 32-30 72-29 93 3 22 34 51 31 91-7l33-32 102 12c57 6 155 16 218 22s148 15 188 21c40 5 196 9 346 9 235 0 275-2 286-15 28-34 87 6 64 43-15 23-48 27-67 8-13-14-54-16-276-16-143 0-293 4-333 9-40 6-127 15-193 21-138 13-281 29-311 35-14 3-31-7-54-30z"/><path d="m1545 1384c-328-41-386-44-686-44-263 0-308 2-313 15-8 21-40 19-62-6-13-15-16-24-8-36 20-32 41-38 62-20 17 15 51 17 338 17 216 0 358-5 439-14 66-8 191-23 278-32l157-18 33 32c40 38 72 41 103 7 26-28 60-32 91-10 63 44 1 145-68 109-15-7-29-20-32-29-11-26-60-18-92 15-33 35-57 36-240 14z"/><path d="m470 820c0-127 2-150 15-150s15 23 15 150-2 150-15 150-15-23-15-150z"/><path d="m760 820c0-125 2-150 15-150 12 0 15 23 17 123l3 122 83-122c45-68 89-123 97-123 13 0 15 24 15 150 0 125-2 150-15 150-12 0-15-23-17-121l-3-121-83 121c-46 67-90 121-98 121-12 0-14-26-14-150z"/><path d="m1240 820v-150h75c88 0 102 18 18 22l-58 3-3 58-3 57h56c30 0 55 5 55 10 0 6-25 10-55 10h-56l3 58 3 57 58 3c84 4 70 22-18 22h-75z"/><path d="m1688 820c-40-110-51-150-41-150 8 0 21 16 29 35l14 35h69 69l12-35c6-19 18-35 26-35 19 0 20-4-39 155-34 90-58 141-68 143-12 2-29-33-71-148zm102 26c29-85 29-86-35-86-30 0-55 3-55 7 0 21 56 151 62 145 4-4 17-34 28-66z"/><path d="m2130 820v-150h70c40 0 70 4 70 10s-25 10-55 10h-55v140c0 118-2 140-15 140s-15-23-15-150z"/><path d="m2500 820v-150h70c40 0 70 4 70 10s-25 10-55 10h-55v140c0 118-2 140-15 140s-15-23-15-150z"/><path d="m2870 820c0-127 2-150 15-150s15 23 15 150-2 150-15 150-15-23-15-150z"/><path d="m3186 949c-37-29-37-89 0-118 15-12 35-21 46-21 10 0 34-7 53-14 29-12 35-20 35-45 0-58-71-80-116-36-27 27-44 32-44 13 1-57 119-80 165-33 30 30 33 77 6 104-18 18-79 41-108 41-7 0-20 11-29 25-15 23-15 27 0 49 8 14 24 27 34 30 25 8 71-9 78-29 8-19 34-20 34-1 0 25-50 56-90 56-23 0-48-8-64-21z"/><path d="m3652 950c-130-79-74-280 78-280 114 0 184 117 132 220-37 75-138 104-210 60zm148-29c38-27 51-60 47-114-3-38-11-56-36-80-27-28-39-32-82-32-46 0-54 4-85 37-29 32-34 45-34 87 0 105 108 163 190 102z"/><path d="m4120 820c0-125 2-150 15-150 12 0 15 23 17 123l3 122 83-122c45-68 89-123 97-123 13 0 15 24 15 150 0 125-2 150-15 150-12 0-15-23-17-121l-3-121-83 121c-46 67-90 121-98 121-12 0-14-26-14-150z"/></g></svg>